<svg width="1140" height="1140" viewBox="0 0 1140 1140" fill="none" xmlns="http://www.w3.org/2000/svg">
<rect width="1140" height="1140" rx="15" fill="#C0D3FF" fill-opacity="0.25"/>
<circle cx="653" cy="446" r="208" fill="white"/>
<circle cx="396" cy="210" r="75" fill="white"/>
<path fill-rule="evenodd" clip-rule="evenodd" d="M458.218 631.498C525.188 597.267 551.728 515.228 517.498 448.259C483.267 381.289 401.228 354.749 334.259 388.98C267.289 423.21 240.749 505.249 274.98 572.218C309.21 639.188 391.249 665.728 458.218 631.498ZM471.052 591.827C523.523 565.008 544.317 500.73 517.497 448.259C490.677 395.788 426.4 374.994 373.929 401.813C321.458 428.633 300.663 492.911 327.483 545.382C354.303 597.853 418.581 618.647 471.052 591.827Z" fill="#7B7FA4"/>
<path d="M214.568 846.032L243.08 914H234.632L229.064 901.04H200.072L194.504 914H186.056L214.568 846.032ZM203.336 893.168H225.8L214.568 866.48L203.336 893.168ZM292.016 858.992H299.792V888.848C299.792 903.344 288.08 915.152 273.488 915.152C258.992 915.152 247.28 903.344 247.28 888.848V858.992H255.056V888.848C255.056 899.024 263.312 907.376 273.488 907.376C283.76 907.376 292.016 899.024 292.016 888.848V858.992ZM337.823 907.28C343.487 907.28 348.767 904.976 352.511 901.232L358.079 906.704C352.895 911.888 345.695 915.152 337.823 915.152C321.983 915.152 309.215 902.288 309.215 886.544C309.215 870.704 321.983 857.84 337.823 857.84C345.695 857.84 352.895 861.104 358.079 866.288L352.511 871.856C348.767 868.016 343.487 865.712 337.823 865.712C326.303 865.712 316.991 875.024 316.991 886.544C316.991 897.968 326.303 907.28 337.823 907.28ZM411.172 858.992H418.948V888.848C418.948 903.344 407.236 915.152 392.644 915.152C378.148 915.152 366.436 903.344 366.436 888.848V858.992H374.212V888.848C374.212 899.024 382.468 907.376 392.644 907.376C402.916 907.376 411.172 899.024 411.172 888.848V858.992ZM457.267 857.84C471.859 857.84 483.571 869.648 483.571 884.144V914.096H475.795V884.144C475.795 873.968 467.539 865.712 457.267 865.712C447.091 865.712 438.835 873.968 438.835 884.144V914.096H431.059V858.992H438.835V866.384C443.251 861.104 449.683 857.84 457.267 857.84ZM550.087 886.544C550.087 887.792 549.991 889.136 549.799 890.384H501.031C502.855 899.984 511.303 907.28 521.479 907.28C527.239 907.28 532.423 904.976 536.167 901.232L541.735 906.704C536.551 911.888 529.351 915.152 521.479 915.152C505.639 915.152 492.871 902.288 492.871 886.544C492.871 870.704 505.639 857.84 521.479 857.84C537.223 857.84 550.087 870.704 550.087 886.544ZM501.031 882.608H541.831C540.007 873.008 531.559 865.712 521.479 865.712C511.303 865.712 502.855 873.008 501.031 882.608ZM635.499 846.992H643.371V914.096H635.499V905.552C630.507 911.408 623.211 915.152 614.667 915.152C598.827 915.152 586.059 902.288 586.059 886.544C586.059 870.704 598.827 857.84 614.667 857.84C623.211 857.84 630.507 861.584 635.499 867.44V846.992ZM614.667 907.28C626.091 907.28 635.403 897.968 635.403 886.544C635.403 875.024 626.091 865.712 614.667 865.712C603.147 865.712 593.835 875.024 593.835 886.544C593.835 897.968 603.147 907.28 614.667 907.28ZM682.636 857.84C698.38 857.84 711.244 870.704 711.244 886.544C711.244 902.288 698.38 915.152 682.636 915.152C666.796 915.152 654.028 902.288 654.028 886.544C654.028 870.704 666.796 857.84 682.636 857.84ZM682.636 907.28C694.156 907.28 703.468 897.968 703.468 886.544C703.468 875.024 694.156 865.712 682.636 865.712C671.116 865.712 661.804 875.024 661.804 886.544C661.804 897.968 671.116 907.28 682.636 907.28ZM748.08 857.84C762.672 857.84 774.384 869.648 774.384 884.144V914.096H766.608V884.144C766.608 873.968 758.352 865.712 748.08 865.712C737.904 865.712 729.648 873.968 729.648 884.144V914.096H721.872V858.992H729.648V866.384C734.064 861.104 740.496 857.84 748.08 857.84ZM812.58 857.84C827.172 857.84 838.884 869.648 838.884 884.144V914.096H831.108V884.144C831.108 873.968 822.852 865.712 812.58 865.712C802.404 865.712 794.148 873.968 794.148 884.144V914.096H786.372V858.992H794.148V866.384C798.564 861.104 804.996 857.84 812.58 857.84ZM905.4 886.544C905.4 887.792 905.304 889.136 905.112 890.384H856.344C858.168 899.984 866.616 907.28 876.792 907.28C882.552 907.28 887.736 904.976 891.48 901.232L897.048 906.704C891.864 911.888 884.664 915.152 876.792 915.152C860.952 915.152 848.184 902.288 848.184 886.544C848.184 870.704 860.952 857.84 876.792 857.84C892.536 857.84 905.4 870.704 905.4 886.544ZM856.344 882.608H897.144C895.32 873.008 886.872 865.712 876.792 865.712C866.616 865.712 858.168 873.008 856.344 882.608ZM888.792 836.624L880.92 851.6H872.952L879.192 836.624H888.792ZM969.619 886.544C969.619 887.792 969.523 889.136 969.331 890.384H920.562C922.387 899.984 930.835 907.28 941.011 907.28C946.771 907.28 951.955 904.976 955.699 901.232L961.267 906.704C956.083 911.888 948.883 915.152 941.011 915.152C925.171 915.152 912.403 902.288 912.403 886.544C912.403 870.704 925.171 857.84 941.011 857.84C956.755 857.84 969.619 870.704 969.619 886.544ZM920.562 882.608H961.363C959.539 873.008 951.091 865.712 941.011 865.712C930.835 865.712 922.387 873.008 920.562 882.608ZM238.28 966.992H246.152V1034.1H238.28V1025.55C233.288 1031.41 225.992 1035.15 217.448 1035.15C201.608 1035.15 188.84 1022.29 188.84 1006.54C188.84 990.704 201.608 977.84 217.448 977.84C225.992 977.84 233.288 981.584 238.28 987.44V966.992ZM217.448 1027.28C228.872 1027.28 238.184 1017.97 238.184 1006.54C238.184 995.024 228.872 985.712 217.448 985.712C205.928 985.712 196.616 995.024 196.616 1006.54C196.616 1017.97 205.928 1027.28 217.448 1027.28ZM267.465 973.136C266.409 975.632 263.529 976.88 261.033 975.824C258.537 974.768 257.385 971.888 258.345 969.392C259.401 966.896 262.281 965.648 264.777 966.704C267.369 967.76 268.521 970.64 267.465 973.136ZM266.793 1034H259.017V982.352H266.793V1034ZM308.551 1004.91C314.695 1007.79 318.535 1013.17 318.535 1018.83C318.535 1023.54 316.423 1027.76 312.487 1030.74C308.743 1033.62 303.655 1035.15 297.799 1035.15C293.191 1035.15 288.775 1034 285.127 1031.79C281.287 1029.39 278.599 1026.13 277.639 1022.38L285.127 1020.37C286.183 1024.3 291.655 1027.38 297.799 1027.38C305.383 1027.38 310.759 1023.82 310.759 1018.83C310.759 1016.24 308.551 1013.55 305.287 1012.02C303.175 1010.96 300.391 1010.67 297.511 1010.38C294.343 1010.1 291.079 1009.71 287.911 1008.46C281.383 1005.78 277.159 1000.11 277.159 994.16C277.159 984.656 285.799 977.84 297.799 977.84C307.591 977.84 315.847 983.024 317.959 990.512L310.471 992.624C309.415 988.592 303.943 985.616 297.799 985.616C293.959 985.616 290.503 986.576 288.103 988.304C286.663 989.36 284.935 991.28 284.935 994.16C284.935 996.944 287.335 999.824 290.887 1001.26C292.999 1002.13 295.591 1002.32 298.375 1002.7C301.735 1002.99 305.287 1003.38 308.551 1004.91ZM357.855 977.84C373.695 977.84 386.559 990.704 386.559 1006.54C386.559 1022.29 373.695 1035.15 357.855 1035.15C349.407 1035.15 342.015 1031.41 337.023 1025.55V1052.34H329.247V978.992H337.023V987.536C342.015 981.584 349.407 977.84 357.855 977.84ZM357.855 1027.28C369.375 1027.28 378.687 1017.97 378.687 1006.54C378.687 995.024 369.375 985.712 357.855 985.712C346.431 985.712 337.119 995.024 337.119 1006.54C337.119 1017.97 346.431 1027.28 357.855 1027.28ZM423.136 977.84C438.88 977.84 451.744 990.704 451.744 1006.54C451.744 1022.29 438.88 1035.15 423.136 1035.15C407.296 1035.15 394.528 1022.29 394.528 1006.54C394.528 990.704 407.296 977.84 423.136 977.84ZM423.136 1027.28C434.656 1027.28 443.968 1017.97 443.968 1006.54C443.968 995.024 434.656 985.712 423.136 985.712C411.616 985.712 402.304 995.024 402.304 1006.54C402.304 1017.97 411.616 1027.28 423.136 1027.28ZM488.58 977.84C503.172 977.84 514.884 989.648 514.884 1004.14V1034.1H507.108V1004.14C507.108 993.968 498.852 985.712 488.58 985.712C478.404 985.712 470.148 993.968 470.148 1004.14V1034.1H462.372V978.992H470.148V986.384C474.564 981.104 480.996 977.84 488.58 977.84ZM534.84 973.136C533.784 975.632 530.904 976.88 528.408 975.824C525.912 974.768 524.76 971.888 525.72 969.392C526.776 966.896 529.656 965.648 532.152 966.704C534.744 967.76 535.896 970.64 534.84 973.136ZM534.168 1034H526.392V982.352H534.168V1034ZM575.542 977.84C591.382 977.84 604.246 990.704 604.246 1006.54C604.246 1022.29 591.382 1035.15 575.542 1035.15C567.094 1035.15 559.702 1031.41 554.71 1025.55V1034.1H546.934V966.992H554.71V987.44C559.702 981.584 567.094 977.84 575.542 977.84ZM575.542 1027.28C587.062 1027.28 596.374 1017.97 596.374 1006.54C596.374 995.024 587.062 985.712 575.542 985.712C564.118 985.712 554.806 995.024 554.806 1006.54C554.806 1017.97 564.118 1027.28 575.542 1027.28ZM622.679 1034H614.903V966.992H622.679V1034ZM690.525 1006.54C690.525 1007.79 690.429 1009.14 690.237 1010.38H641.469C643.293 1019.98 651.741 1027.28 661.917 1027.28C667.677 1027.28 672.861 1024.98 676.605 1021.23L682.173 1026.7C676.989 1031.89 669.789 1035.15 661.917 1035.15C646.077 1035.15 633.309 1022.29 633.309 1006.54C633.309 990.704 646.077 977.84 661.917 977.84C677.661 977.84 690.525 990.704 690.525 1006.54ZM641.469 1002.61H682.269C680.445 993.008 671.997 985.712 661.917 985.712C651.741 985.712 643.293 993.008 641.469 1002.61ZM700.198 1023.63C703.366 1023.63 705.862 1026.13 705.862 1029.3C705.862 1032.37 703.366 1034.96 700.198 1034.96C697.126 1034.96 694.63 1032.37 694.63 1029.3C694.63 1026.13 697.126 1023.63 700.198 1023.63ZM719.98 1023.63C723.148 1023.63 725.644 1026.13 725.644 1029.3C725.644 1032.37 723.148 1034.96 719.98 1034.96C716.908 1034.96 714.412 1032.37 714.412 1029.3C714.412 1026.13 716.908 1023.63 719.98 1023.63ZM739.761 1023.63C742.929 1023.63 745.425 1026.13 745.425 1029.3C745.425 1032.37 742.929 1034.96 739.761 1034.96C736.689 1034.96 734.193 1032.37 734.193 1029.3C734.193 1026.13 736.689 1023.63 739.761 1023.63Z" fill="white"/>
</svg>
