<svg width="2167" height="664" viewBox="0 0 2167 664" fill="none" xmlns="http://www.w3.org/2000/svg">
<rect width="2167" height="664" fill="#DCE0EB"/>
<ellipse cx="1040" cy="341" rx="196" ry="192" fill="#7B7FA4"/>
<path fill-rule="evenodd" clip-rule="evenodd" d="M1333.96 274.261C1269.36 235.754 1185.77 256.912 1147.26 321.518C1108.75 386.123 1129.91 469.712 1194.52 508.218C1259.12 546.725 1342.71 525.567 1381.22 460.961C1419.72 396.356 1398.57 312.767 1333.96 274.261ZM1293.54 284.492C1242.92 254.322 1177.43 270.899 1147.26 321.518C1117.09 372.137 1133.67 437.629 1184.29 467.799C1234.91 497.969 1300.4 481.392 1330.57 430.773C1360.74 380.154 1344.16 314.662 1293.54 284.492Z" fill="white"/>
<circle cx="1601" cy="266" r="75" fill="white"/>
<circle cx="1796" cy="377" r="45" fill="white"/>
<circle cx="1945" cy="297" r="35" fill="#7B7FA4"/>
<path d="M197.568 264.032L226.08 332H217.632L212.064 319.04H183.072L177.504 332H169.056L197.568 264.032ZM186.336 311.168H208.8L197.568 284.48L186.336 311.168ZM275.016 276.992H282.792V306.848C282.792 321.344 271.08 333.152 256.488 333.152C241.992 333.152 230.28 321.344 230.28 306.848V276.992H238.056V306.848C238.056 317.024 246.312 325.376 256.488 325.376C266.76 325.376 275.016 317.024 275.016 306.848V276.992ZM320.823 325.28C326.487 325.28 331.767 322.976 335.511 319.232L341.079 324.704C335.895 329.888 328.695 333.152 320.823 333.152C304.983 333.152 292.215 320.288 292.215 304.544C292.215 288.704 304.983 275.84 320.823 275.84C328.695 275.84 335.895 279.104 341.079 284.288L335.511 289.856C331.767 286.016 326.487 283.712 320.823 283.712C309.303 283.712 299.991 293.024 299.991 304.544C299.991 315.968 309.303 325.28 320.823 325.28ZM394.172 276.992H401.948V306.848C401.948 321.344 390.236 333.152 375.644 333.152C361.148 333.152 349.436 321.344 349.436 306.848V276.992H357.212V306.848C357.212 317.024 365.468 325.376 375.644 325.376C385.916 325.376 394.172 317.024 394.172 306.848V276.992ZM440.267 275.84C454.859 275.84 466.571 287.648 466.571 302.144V332.096H458.795V302.144C458.795 291.968 450.539 283.712 440.267 283.712C430.091 283.712 421.835 291.968 421.835 302.144V332.096H414.059V276.992H421.835V284.384C426.251 279.104 432.683 275.84 440.267 275.84ZM524.616 272.768C520.2 272.768 516.648 276.32 516.648 280.736V289.568H532.392V297.44H516.648V332.096H508.872V297.44H505.128V289.568H508.872V280.736C508.872 272.096 515.88 264.992 524.616 264.992H532.392V272.768H524.616ZM549.152 271.136C548.096 273.632 545.216 274.88 542.72 273.824C540.224 272.768 539.072 269.888 540.032 267.392C541.088 264.896 543.968 263.648 546.464 264.704C549.056 265.76 550.208 268.64 549.152 271.136ZM548.48 332H540.704V280.352H548.48V332ZM569.023 332H561.247V264.992H569.023V332ZM649.829 275.84C663.653 275.84 674.885 287.072 674.885 300.992V332H667.109V300.992C667.109 291.392 659.333 283.712 649.829 283.712C640.229 283.712 632.549 291.392 632.549 300.992V332H624.677V300.992C624.677 291.392 616.901 283.712 607.397 283.712C597.893 283.712 590.117 291.392 590.117 300.992V332H582.341V276.992H590.117V284C594.149 279.008 600.101 275.84 607.397 275.84C616.325 275.84 624.101 280.544 628.613 287.552C633.029 280.544 640.901 275.84 649.829 275.84ZM770.65 304.544C770.65 305.792 770.554 307.136 770.362 308.384H721.594C723.418 317.984 731.866 325.28 742.042 325.28C747.802 325.28 752.986 322.976 756.73 319.232L762.298 324.704C757.114 329.888 749.914 333.152 742.042 333.152C726.202 333.152 713.434 320.288 713.434 304.544C713.434 288.704 726.202 275.84 742.042 275.84C757.786 275.84 770.65 288.704 770.65 304.544ZM721.594 300.608H762.394C760.57 291.008 752.122 283.712 742.042 283.712C731.866 283.712 723.418 291.008 721.594 300.608ZM806.549 275.84C821.141 275.84 832.853 287.648 832.853 302.144V332.096H825.077V302.144C825.077 291.968 816.821 283.712 806.549 283.712C796.373 283.712 788.117 291.968 788.117 302.144V332.096H780.341V276.992H788.117V284.384C792.533 279.104 798.965 275.84 806.549 275.84ZM203.136 395.84C218.976 395.84 231.84 408.704 231.84 424.544C231.84 440.288 218.976 453.152 203.136 453.152C194.688 453.152 187.296 449.408 182.304 443.552V470.336H174.528V396.992H182.304V405.536C187.296 399.584 194.688 395.84 203.136 395.84ZM203.136 445.28C214.656 445.28 223.968 435.968 223.968 424.544C223.968 413.024 214.656 403.712 203.136 403.712C191.712 403.712 182.4 413.024 182.4 424.544C182.4 435.968 191.712 445.28 203.136 445.28ZM268.417 395.84C284.161 395.84 297.025 408.704 297.025 424.544C297.025 440.288 284.161 453.152 268.417 453.152C252.577 453.152 239.809 440.288 239.809 424.544C239.809 408.704 252.577 395.84 268.417 395.84ZM268.417 445.28C279.937 445.28 289.249 435.968 289.249 424.544C289.249 413.024 279.937 403.712 268.417 403.712C256.897 403.712 247.585 413.024 247.585 424.544C247.585 435.968 256.897 445.28 268.417 445.28ZM351.141 396.992H358.917V426.848C358.917 441.344 347.205 453.152 332.613 453.152C318.117 453.152 306.405 441.344 306.405 426.848V396.992H314.181V426.848C314.181 437.024 322.437 445.376 332.613 445.376C342.885 445.376 351.141 437.024 351.141 426.848V396.992ZM378.804 405.344C383.796 399.488 391.092 395.84 399.54 395.84V403.712C388.308 403.712 379.188 412.64 378.804 423.68V452.096H371.028V396.992H378.804V405.344ZM444.429 452H436.653V384.992H444.429V452ZM512.275 424.544C512.275 425.792 512.179 427.136 511.987 428.384H463.219C465.043 437.984 473.491 445.28 483.667 445.28C489.427 445.28 494.611 442.976 498.355 439.232L503.923 444.704C498.739 449.888 491.539 453.152 483.667 453.152C467.827 453.152 455.059 440.288 455.059 424.544C455.059 408.704 467.827 395.84 483.667 395.84C499.411 395.84 512.275 408.704 512.275 424.544ZM463.219 420.608H504.019C502.195 411.008 493.747 403.712 483.667 403.712C473.491 403.712 465.043 411.008 463.219 420.608ZM618.422 395.84C632.246 395.84 643.478 407.072 643.478 420.992V452H635.702V420.992C635.702 411.392 627.926 403.712 618.422 403.712C608.822 403.712 601.142 411.392 601.142 420.992V452H593.27V420.992C593.27 411.392 585.494 403.712 575.99 403.712C566.486 403.712 558.71 411.392 558.71 420.992V452H550.934V396.992H558.71V404C562.742 399.008 568.694 395.84 575.99 395.84C584.918 395.84 592.694 400.544 597.206 407.552C601.622 400.544 609.494 395.84 618.422 395.84ZM681.667 395.84C697.411 395.84 710.275 408.704 710.275 424.544C710.275 440.288 697.411 453.152 681.667 453.152C665.827 453.152 653.059 440.288 653.059 424.544C653.059 408.704 665.827 395.84 681.667 395.84ZM681.667 445.28C693.187 445.28 702.499 435.968 702.499 424.544C702.499 413.024 693.187 403.712 681.667 403.712C670.147 403.712 660.835 413.024 660.835 424.544C660.835 435.968 670.147 445.28 681.667 445.28ZM788.391 395.84C802.215 395.84 813.447 407.072 813.447 420.992V452H805.671V420.992C805.671 411.392 797.895 403.712 788.391 403.712C778.791 403.712 771.111 411.392 771.111 420.992V452H763.239V420.992C763.239 411.392 755.463 403.712 745.959 403.712C736.455 403.712 728.679 411.392 728.679 420.992V452H720.903V396.992H728.679V404C732.711 399.008 738.663 395.84 745.959 395.84C754.887 395.84 762.663 400.544 767.175 407.552C771.591 400.544 779.463 395.84 788.391 395.84Z" fill="#7B7FA4"/>
<path d="M920.561 276.992H928.433V332.096H920.561V323.552C915.569 329.408 908.273 333.152 899.729 333.152C883.889 333.152 871.121 320.288 871.121 304.544C871.121 288.704 883.889 275.84 899.729 275.84C908.273 275.84 915.569 279.584 920.561 285.44V276.992ZM899.729 325.28C911.153 325.28 920.465 315.968 920.465 304.544C920.465 293.024 911.153 283.712 899.729 283.712C888.209 283.712 878.897 293.024 878.897 304.544C878.897 315.968 888.209 325.28 899.729 325.28ZM984.114 276.992H992.946L964.626 333.248L936.402 276.992H945.138L964.626 315.776L984.114 276.992ZM1044.41 276.992H1052.28V332.096H1044.41V323.552C1039.41 329.408 1032.12 333.152 1023.57 333.152C1007.73 333.152 994.965 320.288 994.965 304.544C994.965 288.704 1007.73 275.84 1023.57 275.84C1032.12 275.84 1039.41 279.584 1044.41 285.44V276.992ZM1023.57 325.28C1035 325.28 1044.31 315.968 1044.31 304.544C1044.31 293.024 1035 283.712 1023.57 283.712C1012.05 283.712 1002.74 293.024 1002.74 304.544C1002.74 315.968 1012.05 325.28 1023.57 325.28ZM1091.83 275.84C1106.42 275.84 1118.13 287.648 1118.13 302.144V332.096H1110.36V302.144C1110.36 291.968 1102.1 283.712 1091.83 283.712C1081.65 283.712 1073.4 291.968 1073.4 302.144V332.096H1065.62V276.992H1073.4V284.384C1077.81 279.104 1084.25 275.84 1091.83 275.84ZM1139.57 276.992H1150.13V284.768H1139.57V332.096H1131.79V284.768H1124.78V276.992H1131.79V264.992H1139.57V276.992ZM916.142 395.84C930.734 395.84 942.446 407.648 942.446 422.144V452.096H934.67V422.144C934.67 411.968 926.414 403.712 916.142 403.712C905.966 403.712 897.71 411.968 897.71 422.144V452.096H889.934V396.992H897.71V404.384C902.126 399.104 908.558 395.84 916.142 395.84ZM963.878 396.992H974.438V404.768H963.878V452.096H956.102V404.768H949.094V396.992H956.102V384.992H963.878V396.992Z" fill="white"/>
<path d="M880.244 424.544C880.244 425.792 880.148 427.136 879.956 428.384H831.188C833.012 437.984 841.46 445.28 851.636 445.28C857.396 445.28 862.58 442.976 866.324 439.232L871.892 444.704C866.708 449.888 859.508 453.152 851.636 453.152C835.796 453.152 823.028 440.288 823.028 424.544C823.028 408.704 835.796 395.84 851.636 395.84C867.38 395.84 880.244 408.704 880.244 424.544ZM831.188 420.608H871.988C870.164 411.008 861.716 403.712 851.636 403.712C841.46 403.712 833.012 411.008 831.188 420.608Z" fill="url(#paint0_linear_4322_3937)"/>
<defs>
<linearGradient id="paint0_linear_4322_3937" x1="168" y1="381" x2="1378" y2="381" gradientUnits="userSpaceOnUse">
<stop offset="0.525641" stop-color="#7B7FA4"/>
<stop offset="0.612179" stop-color="white"/>
</linearGradient>
</defs>
</svg>
