<svg width="1140" height="1140" viewBox="0 0 1140 1140" fill="none" xmlns="http://www.w3.org/2000/svg">
<rect width="1140" height="1140" rx="15" fill="#2D2D2D" fill-opacity="0.64"/>
<path d="M327.091 275.909H351.364L377 338.455H378.091L403.727 275.909H428V369H408.909V308.409H408.136L384.045 368.545H371.045L346.955 308.182H346.182V369H327.091V275.909ZM501.716 275.909H521.398V336.364C521.398 343.152 519.777 349.091 516.534 354.182C513.322 359.273 508.822 363.242 503.034 366.091C497.246 368.909 490.504 370.318 482.807 370.318C475.08 370.318 468.322 368.909 462.534 366.091C456.746 363.242 452.246 359.273 449.034 354.182C445.822 349.091 444.216 343.152 444.216 336.364V275.909H463.898V334.682C463.898 338.227 464.67 341.379 466.216 344.136C467.792 346.894 470.004 349.061 472.852 350.636C475.701 352.212 479.019 353 482.807 353C486.625 353 489.943 352.212 492.761 350.636C495.61 349.061 497.807 346.894 499.352 344.136C500.928 341.379 501.716 338.227 501.716 334.682V275.909ZM537.591 369V275.909H574.864C581.712 275.909 587.424 276.924 592 278.955C596.576 280.985 600.015 283.803 602.318 287.409C604.621 290.985 605.773 295.106 605.773 299.773C605.773 303.409 605.045 306.606 603.591 309.364C602.136 312.091 600.136 314.333 597.591 316.091C595.076 317.818 592.197 319.045 588.955 319.773V320.682C592.5 320.833 595.818 321.833 598.909 323.682C602.03 325.53 604.561 328.121 606.5 331.455C608.439 334.758 609.409 338.697 609.409 343.273C609.409 348.212 608.182 352.621 605.727 356.5C603.303 360.348 599.712 363.394 594.955 365.636C590.197 367.879 584.333 369 577.364 369H537.591ZM557.273 352.909H573.318C578.803 352.909 582.803 351.864 585.318 349.773C587.833 347.652 589.091 344.833 589.091 341.318C589.091 338.742 588.47 336.47 587.227 334.5C585.985 332.53 584.212 330.985 581.909 329.864C579.636 328.742 576.924 328.182 573.773 328.182H557.273V352.909ZM557.273 314.864H571.864C574.561 314.864 576.955 314.394 579.045 313.455C581.167 312.485 582.833 311.121 584.045 309.364C585.288 307.606 585.909 305.5 585.909 303.045C585.909 299.682 584.712 296.97 582.318 294.909C579.955 292.848 576.591 291.818 572.227 291.818H557.273V314.864ZM641.898 275.909V369H622.216V275.909H641.898Z" fill="white"/>
<circle cx="683" cy="350" r="25" fill="white"/>
<circle cx="683" cy="293" r="25" fill="white"/>
<circle cx="739" cy="350" r="25" fill="white"/>
<circle cx="739" cy="293" r="25" fill="white"/>
<circle cx="795" cy="293" r="25" fill="white"/>
<circle cx="683" cy="236" r="25" fill="white"/>
<circle cx="739" cy="236" r="25" fill="white"/>
<path d="M211.568 596.032L240.08 664H231.632L226.064 651.04H197.072L191.504 664H183.056L211.568 596.032ZM200.336 643.168H222.8L211.568 616.48L200.336 643.168ZM289.016 608.992H296.792V638.848C296.792 653.344 285.08 665.152 270.488 665.152C255.992 665.152 244.28 653.344 244.28 638.848V608.992H252.056V638.848C252.056 649.024 260.312 657.376 270.488 657.376C280.76 657.376 289.016 649.024 289.016 638.848V608.992ZM334.823 657.28C340.487 657.28 345.767 654.976 349.511 651.232L355.079 656.704C349.895 661.888 342.695 665.152 334.823 665.152C318.983 665.152 306.215 652.288 306.215 636.544C306.215 620.704 318.983 607.84 334.823 607.84C342.695 607.84 349.895 611.104 355.079 616.288L349.511 621.856C345.767 618.016 340.487 615.712 334.823 615.712C323.303 615.712 313.991 625.024 313.991 636.544C313.991 647.968 323.303 657.28 334.823 657.28ZM408.172 608.992H415.948V638.848C415.948 653.344 404.236 665.152 389.644 665.152C375.148 665.152 363.436 653.344 363.436 638.848V608.992H371.212V638.848C371.212 649.024 379.468 657.376 389.644 657.376C399.916 657.376 408.172 649.024 408.172 638.848V608.992ZM454.267 607.84C468.859 607.84 480.571 619.648 480.571 634.144V664.096H472.795V634.144C472.795 623.968 464.539 615.712 454.267 615.712C444.091 615.712 435.835 623.968 435.835 634.144V664.096H428.059V608.992H435.835V616.384C440.251 611.104 446.683 607.84 454.267 607.84ZM547.087 636.544C547.087 637.792 546.991 639.136 546.799 640.384H498.031C499.855 649.984 508.303 657.28 518.479 657.28C524.239 657.28 529.423 654.976 533.167 651.232L538.735 656.704C533.551 661.888 526.351 665.152 518.479 665.152C502.639 665.152 489.871 652.288 489.871 636.544C489.871 620.704 502.639 607.84 518.479 607.84C534.223 607.84 547.087 620.704 547.087 636.544ZM498.031 632.608H538.831C537.007 623.008 528.559 615.712 518.479 615.712C508.303 615.712 499.855 623.008 498.031 632.608ZM632.499 596.992H640.371V664.096H632.499V655.552C627.507 661.408 620.211 665.152 611.667 665.152C595.827 665.152 583.059 652.288 583.059 636.544C583.059 620.704 595.827 607.84 611.667 607.84C620.211 607.84 627.507 611.584 632.499 617.44V596.992ZM611.667 657.28C623.091 657.28 632.403 647.968 632.403 636.544C632.403 625.024 623.091 615.712 611.667 615.712C600.147 615.712 590.835 625.024 590.835 636.544C590.835 647.968 600.147 657.28 611.667 657.28ZM679.636 607.84C695.38 607.84 708.244 620.704 708.244 636.544C708.244 652.288 695.38 665.152 679.636 665.152C663.796 665.152 651.028 652.288 651.028 636.544C651.028 620.704 663.796 607.84 679.636 607.84ZM679.636 657.28C691.156 657.28 700.468 647.968 700.468 636.544C700.468 625.024 691.156 615.712 679.636 615.712C668.116 615.712 658.804 625.024 658.804 636.544C658.804 647.968 668.116 657.28 679.636 657.28ZM745.08 607.84C759.672 607.84 771.384 619.648 771.384 634.144V664.096H763.608V634.144C763.608 623.968 755.352 615.712 745.08 615.712C734.904 615.712 726.648 623.968 726.648 634.144V664.096H718.872V608.992H726.648V616.384C731.064 611.104 737.496 607.84 745.08 607.84ZM809.58 607.84C824.172 607.84 835.884 619.648 835.884 634.144V664.096H828.108V634.144C828.108 623.968 819.852 615.712 809.58 615.712C799.404 615.712 791.148 623.968 791.148 634.144V664.096H783.372V608.992H791.148V616.384C795.564 611.104 801.996 607.84 809.58 607.84ZM902.4 636.544C902.4 637.792 902.304 639.136 902.112 640.384H853.344C855.168 649.984 863.616 657.28 873.792 657.28C879.552 657.28 884.736 654.976 888.48 651.232L894.048 656.704C888.864 661.888 881.664 665.152 873.792 665.152C857.952 665.152 845.184 652.288 845.184 636.544C845.184 620.704 857.952 607.84 873.792 607.84C889.536 607.84 902.4 620.704 902.4 636.544ZM853.344 632.608H894.144C892.32 623.008 883.872 615.712 873.792 615.712C863.616 615.712 855.168 623.008 853.344 632.608ZM885.792 586.624L877.92 601.6H869.952L876.192 586.624H885.792ZM966.619 636.544C966.619 637.792 966.523 639.136 966.331 640.384H917.562C919.387 649.984 927.835 657.28 938.011 657.28C943.771 657.28 948.955 654.976 952.699 651.232L958.267 656.704C953.083 661.888 945.883 665.152 938.011 665.152C922.171 665.152 909.403 652.288 909.403 636.544C909.403 620.704 922.171 607.84 938.011 607.84C953.755 607.84 966.619 620.704 966.619 636.544ZM917.562 632.608H958.363C956.539 623.008 948.091 615.712 938.011 615.712C927.835 615.712 919.387 623.008 917.562 632.608ZM235.28 716.992H243.152V784.096H235.28V775.552C230.288 781.408 222.992 785.152 214.448 785.152C198.608 785.152 185.84 772.288 185.84 756.544C185.84 740.704 198.608 727.84 214.448 727.84C222.992 727.84 230.288 731.584 235.28 737.44V716.992ZM214.448 777.28C225.872 777.28 235.184 767.968 235.184 756.544C235.184 745.024 225.872 735.712 214.448 735.712C202.928 735.712 193.616 745.024 193.616 756.544C193.616 767.968 202.928 777.28 214.448 777.28ZM264.465 723.136C263.409 725.632 260.529 726.88 258.033 725.824C255.537 724.768 254.385 721.888 255.345 719.392C256.401 716.896 259.281 715.648 261.777 716.704C264.369 717.76 265.521 720.64 264.465 723.136ZM263.793 784H256.017V732.352H263.793V784ZM305.551 754.912C311.695 757.792 315.535 763.168 315.535 768.832C315.535 773.536 313.423 777.76 309.487 780.736C305.743 783.616 300.655 785.152 294.799 785.152C290.191 785.152 285.775 784 282.127 781.792C278.287 779.392 275.599 776.128 274.639 772.384L282.127 770.368C283.183 774.304 288.655 777.376 294.799 777.376C302.383 777.376 307.759 773.824 307.759 768.832C307.759 766.24 305.551 763.552 302.287 762.016C300.175 760.96 297.391 760.672 294.511 760.384C291.343 760.096 288.079 759.712 284.911 758.464C278.383 755.776 274.159 750.112 274.159 744.16C274.159 734.656 282.799 727.84 294.799 727.84C304.591 727.84 312.847 733.024 314.959 740.512L307.471 742.624C306.415 738.592 300.943 735.616 294.799 735.616C290.959 735.616 287.503 736.576 285.103 738.304C283.663 739.36 281.935 741.28 281.935 744.16C281.935 746.944 284.335 749.824 287.887 751.264C289.999 752.128 292.591 752.32 295.375 752.704C298.735 752.992 302.287 753.376 305.551 754.912ZM354.855 727.84C370.695 727.84 383.559 740.704 383.559 756.544C383.559 772.288 370.695 785.152 354.855 785.152C346.407 785.152 339.015 781.408 334.023 775.552V802.336H326.247V728.992H334.023V737.536C339.015 731.584 346.407 727.84 354.855 727.84ZM354.855 777.28C366.375 777.28 375.687 767.968 375.687 756.544C375.687 745.024 366.375 735.712 354.855 735.712C343.431 735.712 334.119 745.024 334.119 756.544C334.119 767.968 343.431 777.28 354.855 777.28ZM420.136 727.84C435.88 727.84 448.744 740.704 448.744 756.544C448.744 772.288 435.88 785.152 420.136 785.152C404.296 785.152 391.528 772.288 391.528 756.544C391.528 740.704 404.296 727.84 420.136 727.84ZM420.136 777.28C431.656 777.28 440.968 767.968 440.968 756.544C440.968 745.024 431.656 735.712 420.136 735.712C408.616 735.712 399.304 745.024 399.304 756.544C399.304 767.968 408.616 777.28 420.136 777.28ZM485.58 727.84C500.172 727.84 511.884 739.648 511.884 754.144V784.096H504.108V754.144C504.108 743.968 495.852 735.712 485.58 735.712C475.404 735.712 467.148 743.968 467.148 754.144V784.096H459.372V728.992H467.148V736.384C471.564 731.104 477.996 727.84 485.58 727.84ZM531.84 723.136C530.784 725.632 527.904 726.88 525.408 725.824C522.912 724.768 521.76 721.888 522.72 719.392C523.776 716.896 526.656 715.648 529.152 716.704C531.744 717.76 532.896 720.64 531.84 723.136ZM531.168 784H523.392V732.352H531.168V784ZM572.542 727.84C588.382 727.84 601.246 740.704 601.246 756.544C601.246 772.288 588.382 785.152 572.542 785.152C564.094 785.152 556.702 781.408 551.71 775.552V784.096H543.934V716.992H551.71V737.44C556.702 731.584 564.094 727.84 572.542 727.84ZM572.542 777.28C584.062 777.28 593.374 767.968 593.374 756.544C593.374 745.024 584.062 735.712 572.542 735.712C561.118 735.712 551.806 745.024 551.806 756.544C551.806 767.968 561.118 777.28 572.542 777.28ZM619.679 784H611.903V716.992H619.679V784ZM687.525 756.544C687.525 757.792 687.429 759.136 687.237 760.384H638.469C640.293 769.984 648.741 777.28 658.917 777.28C664.677 777.28 669.861 774.976 673.605 771.232L679.173 776.704C673.989 781.888 666.789 785.152 658.917 785.152C643.077 785.152 630.309 772.288 630.309 756.544C630.309 740.704 643.077 727.84 658.917 727.84C674.661 727.84 687.525 740.704 687.525 756.544ZM638.469 752.608H679.269C677.445 743.008 668.997 735.712 658.917 735.712C648.741 735.712 640.293 743.008 638.469 752.608ZM697.198 773.632C700.366 773.632 702.862 776.128 702.862 779.296C702.862 782.368 700.366 784.96 697.198 784.96C694.126 784.96 691.63 782.368 691.63 779.296C691.63 776.128 694.126 773.632 697.198 773.632ZM716.98 773.632C720.148 773.632 722.644 776.128 722.644 779.296C722.644 782.368 720.148 784.96 716.98 784.96C713.908 784.96 711.412 782.368 711.412 779.296C711.412 776.128 713.908 773.632 716.98 773.632ZM736.761 773.632C739.929 773.632 742.425 776.128 742.425 779.296C742.425 782.368 739.929 784.96 736.761 784.96C733.689 784.96 731.193 782.368 731.193 779.296C731.193 776.128 733.689 773.632 736.761 773.632Z" fill="white"/>
</svg>
