<svg width="2167" height="664" viewBox="0 0 2167 664" fill="none" xmlns="http://www.w3.org/2000/svg">
<rect width="2167" height="664" fill="#707070"/>
<path d="M278.091 302.909H302.364L328 365.455H329.091L354.727 302.909H379V396H359.909V335.409H359.136L335.045 395.545H322.045L297.955 335.182H297.182V396H278.091V302.909ZM452.716 302.909H472.398V363.364C472.398 370.152 470.777 376.091 467.534 381.182C464.322 386.273 459.822 390.242 454.034 393.091C448.246 395.909 441.504 397.318 433.807 397.318C426.08 397.318 419.322 395.909 413.534 393.091C407.746 390.242 403.246 386.273 400.034 381.182C396.822 376.091 395.216 370.152 395.216 363.364V302.909H414.898V361.682C414.898 365.227 415.67 368.379 417.216 371.136C418.792 373.894 421.004 376.061 423.852 377.636C426.701 379.212 430.019 380 433.807 380C437.625 380 440.943 379.212 443.761 377.636C446.61 376.061 448.807 373.894 450.352 371.136C451.928 368.379 452.716 365.227 452.716 361.682V302.909ZM488.591 396V302.909H525.864C532.712 302.909 538.424 303.924 543 305.955C547.576 307.985 551.015 310.803 553.318 314.409C555.621 317.985 556.773 322.106 556.773 326.773C556.773 330.409 556.045 333.606 554.591 336.364C553.136 339.091 551.136 341.333 548.591 343.091C546.076 344.818 543.197 346.045 539.955 346.773V347.682C543.5 347.833 546.818 348.833 549.909 350.682C553.03 352.53 555.561 355.121 557.5 358.455C559.439 361.758 560.409 365.697 560.409 370.273C560.409 375.212 559.182 379.621 556.727 383.5C554.303 387.348 550.712 390.394 545.955 392.636C541.197 394.879 535.333 396 528.364 396H488.591ZM508.273 379.909H524.318C529.803 379.909 533.803 378.864 536.318 376.773C538.833 374.652 540.091 371.833 540.091 368.318C540.091 365.742 539.47 363.47 538.227 361.5C536.985 359.53 535.212 357.985 532.909 356.864C530.636 355.742 527.924 355.182 524.773 355.182H508.273V379.909ZM508.273 341.864H522.864C525.561 341.864 527.955 341.394 530.045 340.455C532.167 339.485 533.833 338.121 535.045 336.364C536.288 334.606 536.909 332.5 536.909 330.045C536.909 326.682 535.712 323.97 533.318 321.909C530.955 319.848 527.591 318.818 523.227 318.818H508.273V341.864ZM592.898 302.909V396H573.216V302.909H592.898Z" fill="white"/>
<circle cx="634" cy="377" r="25" fill="white"/>
<circle cx="634" cy="320" r="25" fill="white"/>
<circle cx="690" cy="377" r="25" fill="white"/>
<circle cx="690" cy="320" r="25" fill="white"/>
<circle cx="746" cy="320" r="25" fill="white"/>
<circle cx="634" cy="263" r="25" fill="white"/>
<circle cx="690" cy="263" r="25" fill="white"/>
<path d="M986.568 235.032L1015.08 303H1006.63L1001.06 290.04H972.072L966.504 303H958.056L986.568 235.032ZM975.336 282.168H997.8L986.568 255.48L975.336 282.168ZM1064.02 247.992H1071.79V277.848C1071.79 292.344 1060.08 304.152 1045.49 304.152C1030.99 304.152 1019.28 292.344 1019.28 277.848V247.992H1027.06V277.848C1027.06 288.024 1035.31 296.376 1045.49 296.376C1055.76 296.376 1064.02 288.024 1064.02 277.848V247.992ZM1109.82 296.28C1115.49 296.28 1120.77 293.976 1124.51 290.232L1130.08 295.704C1124.9 300.888 1117.7 304.152 1109.82 304.152C1093.98 304.152 1081.22 291.288 1081.22 275.544C1081.22 259.704 1093.98 246.84 1109.82 246.84C1117.7 246.84 1124.9 250.104 1130.08 255.288L1124.51 260.856C1120.77 257.016 1115.49 254.712 1109.82 254.712C1098.3 254.712 1088.99 264.024 1088.99 275.544C1088.99 286.968 1098.3 296.28 1109.82 296.28ZM1183.17 247.992H1190.95V277.848C1190.95 292.344 1179.24 304.152 1164.64 304.152C1150.15 304.152 1138.44 292.344 1138.44 277.848V247.992H1146.21V277.848C1146.21 288.024 1154.47 296.376 1164.64 296.376C1174.92 296.376 1183.17 288.024 1183.17 277.848V247.992ZM1229.27 246.84C1243.86 246.84 1255.57 258.648 1255.57 273.144V303.096H1247.8V273.144C1247.8 262.968 1239.54 254.712 1229.27 254.712C1219.09 254.712 1210.84 262.968 1210.84 273.144V303.096H1203.06V247.992H1210.84V255.384C1215.25 250.104 1221.68 246.84 1229.27 246.84ZM1313.62 243.768C1309.2 243.768 1305.65 247.32 1305.65 251.736V260.568H1321.39V268.44H1305.65V303.096H1297.87V268.44H1294.13V260.568H1297.87V251.736C1297.87 243.096 1304.88 235.992 1313.62 235.992H1321.39V243.768H1313.62ZM1338.15 242.136C1337.1 244.632 1334.22 245.88 1331.72 244.824C1329.22 243.768 1328.07 240.888 1329.03 238.392C1330.09 235.896 1332.97 234.648 1335.46 235.704C1338.06 236.76 1339.21 239.64 1338.15 242.136ZM1337.48 303H1329.7V251.352H1337.48V303ZM1358.02 303H1350.25V235.992H1358.02V303ZM1438.83 246.84C1452.65 246.84 1463.88 258.072 1463.88 271.992V303H1456.11V271.992C1456.11 262.392 1448.33 254.712 1438.83 254.712C1429.23 254.712 1421.55 262.392 1421.55 271.992V303H1413.68V271.992C1413.68 262.392 1405.9 254.712 1396.4 254.712C1386.89 254.712 1379.12 262.392 1379.12 271.992V303H1371.34V247.992H1379.12V255C1383.15 250.008 1389.1 246.84 1396.4 246.84C1405.32 246.84 1413.1 251.544 1417.61 258.552C1422.03 251.544 1429.9 246.84 1438.83 246.84ZM1559.65 275.544C1559.65 276.792 1559.55 278.136 1559.36 279.384H1510.59C1512.42 288.984 1520.87 296.28 1531.04 296.28C1536.8 296.28 1541.99 293.976 1545.73 290.232L1551.3 295.704C1546.11 300.888 1538.91 304.152 1531.04 304.152C1515.2 304.152 1502.43 291.288 1502.43 275.544C1502.43 259.704 1515.2 246.84 1531.04 246.84C1546.79 246.84 1559.65 259.704 1559.65 275.544ZM1510.59 271.608H1551.39C1549.57 262.008 1541.12 254.712 1531.04 254.712C1520.87 254.712 1512.42 262.008 1510.59 271.608ZM1595.55 246.84C1610.14 246.84 1621.85 258.648 1621.85 273.144V303.096H1614.08V273.144C1614.08 262.968 1605.82 254.712 1595.55 254.712C1585.37 254.712 1577.12 262.968 1577.12 273.144V303.096H1569.34V247.992H1577.12V255.384C1581.53 250.104 1587.96 246.84 1595.55 246.84ZM1709.56 247.992H1717.43V303.096H1709.56V294.552C1704.57 300.408 1697.27 304.152 1688.73 304.152C1672.89 304.152 1660.12 291.288 1660.12 275.544C1660.12 259.704 1672.89 246.84 1688.73 246.84C1697.27 246.84 1704.57 250.584 1709.56 256.44V247.992ZM1688.73 296.28C1700.15 296.28 1709.47 286.968 1709.47 275.544C1709.47 264.024 1700.15 254.712 1688.73 254.712C1677.21 254.712 1667.9 264.024 1667.9 275.544C1667.9 286.968 1677.21 296.28 1688.73 296.28ZM1773.11 247.992H1781.95L1753.63 304.248L1725.4 247.992H1734.14L1753.63 286.776L1773.11 247.992ZM1833.41 247.992H1841.28V303.096H1833.41V294.552C1828.41 300.408 1821.12 304.152 1812.57 304.152C1796.73 304.152 1783.97 291.288 1783.97 275.544C1783.97 259.704 1796.73 246.84 1812.57 246.84C1821.12 246.84 1828.41 250.584 1833.41 256.44V247.992ZM1812.57 296.28C1824 296.28 1833.31 286.968 1833.31 275.544C1833.31 264.024 1824 254.712 1812.57 254.712C1801.05 254.712 1791.74 264.024 1791.74 275.544C1791.74 286.968 1801.05 296.28 1812.57 296.28ZM1880.83 246.84C1895.42 246.84 1907.13 258.648 1907.13 273.144V303.096H1899.36V273.144C1899.36 262.968 1891.1 254.712 1880.83 254.712C1870.65 254.712 1862.4 262.968 1862.4 273.144V303.096H1854.62V247.992H1862.4V255.384C1866.81 250.104 1873.25 246.84 1880.83 246.84ZM1928.57 247.992H1939.13V255.768H1928.57V303.096H1920.79V255.768H1913.78V247.992H1920.79V235.992H1928.57V247.992ZM992.136 366.84C1007.98 366.84 1020.84 379.704 1020.84 395.544C1020.84 411.288 1007.98 424.152 992.136 424.152C983.688 424.152 976.296 420.408 971.304 414.552V441.336H963.528V367.992H971.304V376.536C976.296 370.584 983.688 366.84 992.136 366.84ZM992.136 416.28C1003.66 416.28 1012.97 406.968 1012.97 395.544C1012.97 384.024 1003.66 374.712 992.136 374.712C980.712 374.712 971.4 384.024 971.4 395.544C971.4 406.968 980.712 416.28 992.136 416.28ZM1057.42 366.84C1073.16 366.84 1086.02 379.704 1086.02 395.544C1086.02 411.288 1073.16 424.152 1057.42 424.152C1041.58 424.152 1028.81 411.288 1028.81 395.544C1028.81 379.704 1041.58 366.84 1057.42 366.84ZM1057.42 416.28C1068.94 416.28 1078.25 406.968 1078.25 395.544C1078.25 384.024 1068.94 374.712 1057.42 374.712C1045.9 374.712 1036.58 384.024 1036.58 395.544C1036.58 406.968 1045.9 416.28 1057.42 416.28ZM1140.14 367.992H1147.92V397.848C1147.92 412.344 1136.21 424.152 1121.61 424.152C1107.12 424.152 1095.41 412.344 1095.41 397.848V367.992H1103.18V397.848C1103.18 408.024 1111.44 416.376 1121.61 416.376C1131.89 416.376 1140.14 408.024 1140.14 397.848V367.992ZM1167.8 376.344C1172.8 370.488 1180.09 366.84 1188.54 366.84V374.712C1177.31 374.712 1168.19 383.64 1167.8 394.68V423.096H1160.03V367.992H1167.8V376.344ZM1233.43 423H1225.65V355.992H1233.43V423ZM1301.27 395.544C1301.27 396.792 1301.18 398.136 1300.99 399.384H1252.22C1254.04 408.984 1262.49 416.28 1272.67 416.28C1278.43 416.28 1283.61 413.976 1287.35 410.232L1292.92 415.704C1287.74 420.888 1280.54 424.152 1272.67 424.152C1256.83 424.152 1244.06 411.288 1244.06 395.544C1244.06 379.704 1256.83 366.84 1272.67 366.84C1288.41 366.84 1301.27 379.704 1301.27 395.544ZM1252.22 391.608H1293.02C1291.19 382.008 1282.75 374.712 1272.67 374.712C1262.49 374.712 1254.04 382.008 1252.22 391.608ZM1407.42 366.84C1421.25 366.84 1432.48 378.072 1432.48 391.992V423H1424.7V391.992C1424.7 382.392 1416.93 374.712 1407.42 374.712C1397.82 374.712 1390.14 382.392 1390.14 391.992V423H1382.27V391.992C1382.27 382.392 1374.49 374.712 1364.99 374.712C1355.49 374.712 1347.71 382.392 1347.71 391.992V423H1339.93V367.992H1347.71V375C1351.74 370.008 1357.69 366.84 1364.99 366.84C1373.92 366.84 1381.69 371.544 1386.21 378.552C1390.62 371.544 1398.49 366.84 1407.42 366.84ZM1470.67 366.84C1486.41 366.84 1499.27 379.704 1499.27 395.544C1499.27 411.288 1486.41 424.152 1470.67 424.152C1454.83 424.152 1442.06 411.288 1442.06 395.544C1442.06 379.704 1454.83 366.84 1470.67 366.84ZM1470.67 416.28C1482.19 416.28 1491.5 406.968 1491.5 395.544C1491.5 384.024 1482.19 374.712 1470.67 374.712C1459.15 374.712 1449.83 384.024 1449.83 395.544C1449.83 406.968 1459.15 416.28 1470.67 416.28ZM1577.39 366.84C1591.22 366.84 1602.45 378.072 1602.45 391.992V423H1594.67V391.992C1594.67 382.392 1586.9 374.712 1577.39 374.712C1567.79 374.712 1560.11 382.392 1560.11 391.992V423H1552.24V391.992C1552.24 382.392 1544.46 374.712 1534.96 374.712C1525.46 374.712 1517.68 382.392 1517.68 391.992V423H1509.9V367.992H1517.68V375C1521.71 370.008 1527.66 366.84 1534.96 366.84C1543.89 366.84 1551.66 371.544 1556.18 378.552C1560.59 371.544 1568.46 366.84 1577.39 366.84ZM1705.14 366.84C1719.73 366.84 1731.45 378.648 1731.45 393.144V423.096H1723.67V393.144C1723.67 382.968 1715.41 374.712 1705.14 374.712C1694.97 374.712 1686.71 382.968 1686.71 393.144V423.096H1678.93V367.992H1686.71V375.384C1691.13 370.104 1697.56 366.84 1705.14 366.84ZM1752.88 367.992H1763.44V375.768H1752.88V423.096H1745.1V375.768H1738.09V367.992H1745.1V355.992H1752.88V367.992Z" fill="white"/>
<path d="M1669.24 395.544C1669.24 396.792 1669.15 398.136 1668.96 399.384H1620.19C1622.01 408.984 1630.46 416.28 1640.64 416.28C1646.4 416.28 1651.58 413.976 1655.32 410.232L1660.89 415.704C1655.71 420.888 1648.51 424.152 1640.64 424.152C1624.8 424.152 1612.03 411.288 1612.03 395.544C1612.03 379.704 1624.8 366.84 1640.64 366.84C1656.38 366.84 1669.24 379.704 1669.24 395.544ZM1620.19 391.608H1660.99C1659.16 382.008 1650.72 374.712 1640.64 374.712C1630.46 374.712 1622.01 382.008 1620.19 391.608Z" fill="#EEF1F4"/>
</svg>
