<svg width="24" height="24" viewBox="0 0 24 24" fill="none" xmlns="http://www.w3.org/2000/svg">
<g clip-path="url(#clip0_4279_4072)">
<path d="M11.5245 1.46332C11.6742 1.00269 12.3258 1.00269 12.4755 1.46332L14.5821 7.94601C14.6491 8.152 14.8411 8.29147 15.0576 8.29148L21.874 8.29174C22.3584 8.29176 22.5598 8.91153 22.1679 9.19623L16.6535 13.203C16.4783 13.3303 16.405 13.556 16.4719 13.762L18.578 20.2448C18.7277 20.7055 18.2005 21.0885 17.8086 20.8039L12.2939 16.7975C12.1186 16.6702 11.8814 16.6702 11.7061 16.7975L6.1914 20.8039C5.79955 21.0885 5.27234 20.7055 5.42199 20.2448L7.52812 13.762C7.59505 13.556 7.52172 13.3303 7.3465 13.203L1.83208 9.19623C1.44025 8.91153 1.64162 8.29176 2.12597 8.29174L8.94235 8.29148C9.15895 8.29147 9.35091 8.152 9.41785 7.94601L11.5245 1.46332Z" fill="#FFDA38" stroke="#FFDA38" stroke-width="2"/>
</g>
<defs>
<clipPath id="clip0_4279_4072">
<rect width="24" height="24" fill="white"/>
</clipPath>
</defs>
</svg>
