<svg width="911" height="915" viewBox="0 0 911 915" fill="none" xmlns="http://www.w3.org/2000/svg">
<path fill-rule="evenodd" clip-rule="evenodd" d="M455.468 914.935C707.016 914.935 910.936 711.015 910.936 459.468C910.936 207.92 707.016 4 455.468 4C203.92 4 0 207.92 0 459.468C0 711.015 203.92 914.935 455.468 914.935Z" fill="#9F9F9F"/>
<path fill-rule="evenodd" clip-rule="evenodd" d="M0 455.468C0 590.472 58.7374 711.758 152.051 795.163C152.036 793.792 152.029 792.418 152.029 791.043C152.029 642.959 239.082 517.319 359.779 473.081C324.311 444.771 301.585 401.17 301.585 352.261C301.585 266.933 370.757 197.761 456.086 197.761C541.414 197.761 610.586 266.933 610.586 352.261C610.586 401.35 587.693 445.091 552.001 473.392C672.26 517.906 758.907 643.304 758.907 791.043C758.907 792.418 758.899 793.792 758.885 795.163C852.198 711.758 910.936 590.472 910.936 455.468C910.936 203.92 707.016 0 455.468 0C203.92 0 0 203.92 0 455.468Z" fill="#D9D9D9"/>
</svg>
